<?xml version="1.0" standalone="no"?>
<!DOCTYPE svg PUBLIC "-//W3C//DTD SVG 20010904//EN"
 "http://www.w3.org/TR/2001/REC-SVG-20010904/DTD/svg10.dtd">
<svg version="1.0" xmlns="http://www.w3.org/2000/svg"
 width="936.000000pt" height="936.000000pt" viewBox="0 0 936.000000 936.000000"
 preserveAspectRatio="xMidYMid meet">
<metadata>
Created by potrace 1.14, written by Peter Selinger 2001-2017
</metadata>
<g transform="translate(0.000000,936.000000) scale(0.100000,-0.100000)"
fill="#000000" stroke="none">
<path d="M4659 9297 c-46 -84 -148 -282 -269 -517 -29 -58 -57 -106 -62 -108
-4 -2 -8 -8 -8 -14 0 -5 -11 -31 -24 -57 -13 -25 -38 -75 -56 -111 -19 -36
-40 -73 -48 -82 -8 -10 -12 -18 -8 -18 4 0 -1 -15 -12 -32 -11 -18 -48 -87
-82 -153 -34 -66 -67 -126 -72 -132 -6 -7 -7 -13 -3 -13 4 0 3 -6 -3 -12 -13
-17 -164 -304 -319 -608 -21 -41 -40 -77 -43 -80 -3 -3 -31 -57 -63 -120 -111
-218 -192 -375 -197 -380 -3 -3 -38 -70 -79 -150 -41 -80 -95 -185 -121 -235
-26 -49 -86 -166 -135 -260 -48 -93 -91 -174 -96 -180 -5 -5 -9 -17 -9 -26 0
-10 -4 -19 -9 -21 -4 -1 -53 -89 -107 -195 -243 -472 -335 -646 -346 -661 -15
-17 -4 -25 19 -13 23 12 296 144 303 146 3 0 79 37 170 81 91 44 180 87 198
95 17 7 32 17 32 21 0 5 6 8 14 8 8 0 58 22 112 49 55 26 153 74 219 105 66
31 127 61 135 66 8 6 24 14 35 19 61 26 241 115 245 120 3 3 10 7 15 8 12 2
362 169 385 184 8 5 25 13 38 19 12 5 79 37 147 70 69 33 129 60 133 60 4 0
18 -24 32 -53 69 -141 533 -1053 542 -1064 6 -7 8 -13 4 -13 -3 0 5 -18 19
-40 14 -22 25 -46 25 -53 0 -7 4 -17 9 -22 9 -10 96 -181 646 -1270 130 -258
240 -474 243 -480 4 -5 7 -12 7 -15 1 -10 187 -375 197 -387 6 -7 7 -13 2 -13
-5 0 -4 -4 1 -8 12 -9 175 -333 174 -346 0 -5 3 -12 8 -15 4 -3 24 -37 43 -74
37 -73 102 -146 154 -173 17 -9 81 -34 141 -56 117 -42 114 -41 160 -53 17 -4
35 -11 40 -15 13 -9 108 -35 118 -32 4 1 7 -2 7 -8 0 -5 9 -10 20 -10 12 0 34
-7 50 -15 17 -9 32 -15 35 -15 6 -1 28 -7 53 -17 9 -3 22 -7 27 -9 6 -1 62
-21 125 -44 63 -23 126 -45 140 -50 14 -4 63 -22 110 -40 47 -17 108 -40 135
-50 28 -10 59 -22 70 -26 11 -4 22 -8 25 -8 3 -1 24 -9 45 -18 22 -9 85 -33
140 -54 55 -20 106 -41 113 -47 6 -5 12 -7 12 -4 0 4 115 -51 255 -121 140
-71 255 -127 255 -125 0 6 -46 97 -107 213 -33 63 -92 176 -130 250 -82 159
-204 393 -245 469 -15 30 -33 60 -39 68 -6 7 -8 13 -4 13 4 0 0 11 -8 24 -9
13 -51 91 -93 173 -42 81 -100 193 -129 248 -29 55 -87 168 -130 250 -42 83
-99 191 -125 240 -72 137 -173 331 -216 415 -21 41 -45 83 -53 94 -9 10 -15
21 -14 25 1 3 -27 61 -62 128 -36 67 -65 126 -65 132 0 5 -3 11 -7 13 -5 2
-37 61 -72 131 -36 71 -69 131 -73 133 -5 3 -6 10 -3 15 4 5 1 9 -6 9 -7 0
-10 3 -6 6 3 3 1 11 -4 18 -5 6 -25 43 -45 81 -20 39 -79 153 -132 255 -53
102 -110 212 -127 245 -16 33 -34 63 -40 67 -5 4 -7 8 -3 8 4 0 -7 26 -25 58
-18 31 -39 71 -47 87 -8 17 -19 36 -24 44 -6 7 -11 19 -12 25 -1 7 -14 31 -28
54 -14 23 -26 48 -26 56 0 8 -4 16 -8 18 -5 2 -34 55 -66 118 -32 63 -71 138
-86 165 -29 54 -188 359 -228 440 -14 28 -29 52 -34 53 -4 2 -8 11 -8 21 0 9
-4 21 -9 27 -5 5 -46 81 -91 169 -162 315 -213 410 -223 423 -5 6 -6 12 -2 12
5 0 2 8 -6 18 -9 9 -32 51 -53 92 -21 41 -67 129 -101 195 -34 66 -93 179
-130 250 -37 72 -76 145 -87 163 -11 17 -17 32 -13 32 3 0 -2 12 -13 28 -11
15 -28 45 -39 67 -11 22 -50 99 -87 170 -38 72 -97 184 -131 250 -35 66 -85
163 -112 215 -28 52 -74 142 -103 200 -30 58 -61 116 -69 129 -8 13 -16 30
-17 38 -1 8 -7 20 -13 27 -11 13 -64 113 -154 291 -22 44 -45 86 -51 94 -5 7
-11 19 -12 27 -1 7 -12 27 -24 44 -12 16 -18 30 -14 30 3 0 2 6 -4 13 -6 7
-28 47 -50 90 l-39 77 -34 -63z"/>
<path d="M3939 8656 c-2 -3 -22 -7 -44 -10 -22 -3 -51 -7 -65 -11 -14 -3 -35
-7 -48 -9 -12 -3 -30 -7 -40 -10 -9 -3 -28 -7 -42 -10 -14 -2 -54 -12 -90 -21
-36 -9 -72 -19 -80 -21 -8 -1 -43 -12 -77 -22 -34 -11 -64 -17 -67 -14 -3 3
-6 -1 -6 -8 0 -7 -3 -11 -6 -7 -4 3 -29 -3 -58 -14 -28 -11 -60 -22 -71 -24
-86 -19 -569 -234 -622 -277 -7 -6 -13 -7 -13 -4 0 4 -7 0 -16 -8 -8 -9 -20
-14 -25 -11 -5 4 -9 2 -9 -4 0 -5 -10 -13 -22 -17 -13 -4 -25 -10 -28 -13 -3
-4 -39 -26 -80 -51 -130 -75 -437 -291 -501 -350 -8 -8 -39 -34 -67 -58 -28
-23 -72 -62 -98 -85 -55 -48 -286 -279 -324 -323 -36 -41 -149 -175 -169 -199
-75 -92 -321 -445 -321 -461 0 -3 -15 -28 -33 -57 -18 -29 -39 -65 -47 -82 -8
-16 -17 -32 -21 -35 -19 -18 -178 -361 -235 -510 -14 -36 -31 -78 -37 -95 -7
-16 -12 -32 -12 -35 -1 -10 -37 -116 -46 -135 -9 -21 -78 -274 -84 -310 -2
-11 -10 -48 -18 -82 -9 -35 -13 -63 -10 -63 3 0 0 -6 -6 -13 -6 -8 -9 -16 -6
-18 2 -3 0 -22 -5 -44 -12 -53 -18 -91 -25 -145 -3 -25 -7 -61 -10 -80 -23
-170 -30 -291 -30 -550 0 -232 10 -415 29 -550 10 -76 26 -176 30 -196 2 -12
7 -37 10 -55 10 -62 34 -168 56 -259 7 -25 13 -52 15 -60 2 -8 13 -46 25 -85
11 -38 22 -77 25 -85 2 -8 4 -15 5 -15 1 0 3 -7 5 -15 9 -46 109 -313 157
-420 68 -152 69 -153 84 -132 8 11 37 64 65 119 28 54 73 139 99 188 26 50 80
153 120 229 40 77 77 147 83 156 7 12 5 32 -8 71 -10 30 -19 61 -20 69 0 9 -4
21 -9 28 -4 7 -9 24 -12 38 -3 14 -12 51 -20 82 -8 32 -17 66 -19 77 -7 38
-15 80 -25 125 -6 25 -12 61 -14 80 -2 19 -7 46 -10 60 -9 45 -18 131 -32 305
-14 188 -2 586 21 707 3 11 7 46 11 77 7 59 8 66 24 146 5 28 12 62 15 78 5
26 9 47 19 92 13 57 51 189 78 274 18 53 33 101 34 106 1 6 8 24 15 40 7 17
13 32 14 35 1 3 7 18 13 33 7 16 12 33 12 39 0 5 7 22 15 36 8 15 24 50 36 77
37 84 107 226 145 295 20 36 45 82 56 103 11 20 25 37 31 37 6 0 8 3 4 6 -3 3
-2 11 3 18 5 6 42 61 82 121 39 61 75 112 78 115 4 3 26 31 49 64 24 32 51 66
60 75 9 9 27 31 40 50 66 92 395 420 486 484 17 12 35 27 40 33 33 39 322 238
475 328 48 28 341 174 400 200 85 36 242 95 272 101 18 4 38 11 43 15 6 4 24
11 42 14 25 6 37 18 59 59 14 29 52 102 84 162 31 61 86 166 121 235 35 69 66
127 69 130 3 3 19 34 35 69 17 35 36 70 43 78 11 11 9 13 -16 13 -16 0 -31 -2
-33 -4z"/>
<path d="M5400 8647 c0 -7 4 -17 9 -22 5 -6 44 -77 86 -160 104 -202 244 -472
266 -513 15 -30 29 -38 126 -71 305 -106 576 -240 831 -409 34 -23 65 -42 68
-42 2 0 28 -18 57 -40 29 -22 65 -51 82 -63 297 -224 619 -559 810 -842 22
-33 42 -62 45 -65 7 -6 118 -187 151 -245 29 -51 159 -312 159 -319 0 -3 12
-31 27 -63 14 -32 26 -64 26 -70 0 -7 3 -13 7 -13 4 0 7 -6 8 -12 1 -11 24
-81 110 -338 3 -8 7 -23 8 -32 2 -10 15 -64 29 -120 35 -146 66 -327 80 -473
23 -240 23 -479 1 -735 -6 -72 -17 -164 -21 -180 -2 -8 -7 -33 -10 -55 -3 -23
-8 -52 -10 -65 -3 -14 -8 -40 -11 -59 -3 -18 -8 -43 -10 -55 -3 -11 -7 -32
-10 -46 -3 -14 -10 -43 -16 -65 -6 -22 -12 -47 -13 -55 -1 -8 -5 -22 -8 -30
-10 -29 -39 -125 -41 -137 -1 -7 -5 -15 -8 -18 -6 -6 45 -108 182 -370 31 -60
88 -168 125 -240 37 -71 70 -134 73 -139 2 -5 13 9 22 30 10 22 29 64 43 94
47 103 159 401 171 455 2 6 10 35 20 66 9 31 18 65 21 75 2 11 13 51 24 89 10
39 22 84 25 100 3 17 7 41 10 55 8 36 15 70 22 110 4 19 8 44 10 55 6 28 24
152 30 200 2 22 7 54 9 70 27 171 27 846 0 945 -2 8 -6 42 -9 75 -3 33 -8 70
-10 81 -2 12 -7 39 -10 60 -6 37 -21 120 -31 174 -12 65 -36 164 -60 255 -15
55 -31 118 -36 139 -6 22 -13 44 -17 50 -3 6 -7 16 -8 21 -3 15 -70 206 -85
240 -7 17 -13 32 -13 35 -2 10 -31 78 -64 150 -19 41 -41 93 -50 115 -8 22
-18 42 -22 45 -3 3 -23 39 -43 80 -20 41 -52 102 -72 135 -19 33 -41 71 -48
85 -22 44 -222 349 -236 360 -4 3 -24 30 -46 60 -22 30 -42 57 -45 60 -3 3
-28 32 -54 65 -117 145 -373 412 -495 515 -30 25 -59 50 -65 55 -40 36 -130
108 -181 146 -33 24 -62 46 -65 49 -13 15 -286 193 -370 242 -122 71 -288 157
-392 203 -46 20 -103 46 -127 57 -72 32 -392 148 -411 149 -3 0 -34 8 -70 19
-36 10 -119 32 -185 48 -109 27 -149 36 -225 48 -14 2 -35 6 -47 9 -15 4 -23
1 -23 -8z"/>
<path d="M4269 5466 c-2 -3 -18 -7 -34 -10 -17 -2 -30 -5 -30 -6 0 -1 -11 -4
-24 -6 -14 -2 -34 -12 -44 -22 -11 -9 -21 -16 -23 -15 -2 2 -55 -21 -116 -51
-62 -29 -176 -84 -253 -120 -201 -96 -210 -100 -213 -108 -2 -5 -8 -8 -13 -8
-14 0 -181 -79 -699 -333 -74 -36 -139 -66 -144 -66 -5 1 -12 -3 -15 -8 -3 -4
-103 -56 -222 -115 -192 -96 -224 -115 -280 -171 -35 -34 -73 -79 -84 -100
-11 -20 -23 -37 -27 -37 -5 0 -8 -8 -8 -18 0 -10 -8 -29 -17 -42 -10 -14 -33
-54 -51 -90 -19 -36 -55 -103 -80 -150 -25 -47 -47 -91 -48 -98 -2 -8 -9 -21
-17 -30 -7 -10 -33 -55 -57 -102 -24 -47 -51 -98 -60 -115 -9 -16 -54 -102
-100 -190 -46 -88 -99 -187 -116 -220 -18 -33 -45 -85 -60 -115 -15 -30 -36
-67 -46 -82 -11 -16 -17 -28 -14 -28 3 0 -8 -23 -25 -51 -16 -28 -31 -56 -32
-63 -1 -6 -4 -13 -7 -16 -7 -7 -17 -26 -112 -210 -47 -91 -99 -191 -116 -222
-30 -55 -42 -77 -61 -117 -5 -10 -31 -58 -56 -107 -26 -49 -78 -147 -115 -219
-38 -71 -98 -186 -135 -255 -36 -69 -79 -152 -96 -185 -17 -33 -52 -100 -79
-150 -27 -49 -49 -93 -49 -98 -1 -10 62 22 71 37 4 6 8 8 8 3 0 -4 17 3 37 16
21 13 85 47 143 76 58 29 112 57 120 62 66 38 460 210 625 272 50 19 99 38
110 42 11 4 25 9 30 11 6 2 96 33 200 69 105 36 199 67 210 70 11 2 58 16 105
30 47 15 94 28 105 30 11 1 20 3 20 4 0 2 11 4 25 7 14 2 36 9 50 14 14 5 36
12 50 14 14 3 34 7 45 10 11 2 58 14 105 25 47 11 100 23 119 26 19 3 38 8 42
10 4 3 22 7 40 10 37 5 59 9 129 24 25 6 61 13 80 15 19 3 46 8 60 11 14 3 39
7 55 9 29 4 82 12 135 22 14 2 45 6 70 9 25 3 56 8 70 11 14 2 48 7 75 10 28
2 64 7 80 10 17 3 55 8 85 10 80 7 125 11 215 19 273 25 490 33 870 35 229 0
456 -5 650 -15 217 -11 245 -13 455 -31 41 -4 94 -7 117 -8 24 0 43 -3 43 -6
0 -3 15 -5 33 -6 17 0 69 -4 113 -8 l81 -7 -94 193 c-167 340 -206 423 -204
427 2 2 -2 7 -9 11 -6 4 -13 13 -14 21 -2 8 -33 77 -70 154 -38 77 -86 178
-108 225 -125 265 -135 281 -203 318 -27 16 -118 17 -1037 17 -555 0 -1008 0
-1008 1 0 3 111 230 122 249 6 11 15 27 19 35 9 17 439 889 632 1280 71 146
131 267 133 270 3 7 -51 12 -57 6z"/>
<path d="M7153 1580 c-15 -15 -59 -53 -98 -84 -38 -31 -77 -62 -85 -69 -25
-21 -106 -81 -130 -97 -12 -8 -28 -19 -34 -25 -7 -5 -21 -16 -31 -22 -186
-117 -277 -172 -310 -188 -22 -11 -42 -23 -45 -26 -5 -6 -76 -40 -232 -113
-42 -20 -83 -36 -91 -36 -7 0 -17 -4 -22 -9 -6 -5 -37 -18 -70 -30 -33 -12
-67 -24 -75 -28 -20 -8 -42 -14 -57 -15 -7 -1 -13 -4 -13 -8 0 -5 -22 -12
-110 -35 -3 -1 -12 -4 -20 -8 -20 -8 -259 -68 -290 -73 -14 -2 -34 -6 -46 -9
-12 -3 -39 -7 -60 -10 -21 -3 -50 -8 -62 -11 -13 -3 -43 -7 -65 -10 -23 -3
-53 -7 -67 -10 -24 -4 -165 -15 -222 -18 -15 -1 -30 -4 -34 -8 -3 -4 -14 -3
-24 2 -10 5 -20 6 -24 3 -9 -9 -476 -3 -476 7 0 3 -15 4 -32 4 -18 -1 -41 3
-50 7 -10 6 -19 5 -23 -1 -4 -7 -11 -7 -18 -2 -7 5 -19 9 -27 9 -8 0 -37 4
-65 8 -27 4 -59 9 -70 10 -25 4 -133 24 -162 30 -13 3 -33 7 -44 10 -91 20
-228 56 -279 73 -8 3 -19 6 -25 8 -94 24 -334 119 -502 200 -150 72 -434 236
-441 255 -2 5 -8 9 -13 9 -11 0 -122 81 -127 93 -2 4 -8 7 -13 7 -11 0 -196
147 -237 187 -13 13 -27 24 -32 24 -6 1 -16 2 -22 3 -7 1 -24 -2 -38 -7 -14
-5 -36 -11 -50 -13 -14 -3 -43 -10 -65 -16 -22 -7 -43 -12 -47 -14 -5 -1 -9
-2 -10 -4 -2 -1 -12 -3 -23 -4 -30 -4 -218 -56 -236 -66 -9 -5 -34 -12 -55
-16 -49 -10 -44 -9 -77 -22 -16 -7 -30 -12 -32 -12 -2 0 -16 -5 -31 -10 -27
-10 -27 -11 88 -123 186 -182 213 -205 500 -432 9 -7 19 -11 22 -8 3 4 6 2 6
-4 0 -10 262 -187 335 -227 17 -9 46 -26 65 -38 79 -47 303 -158 420 -207 69
-30 139 -59 155 -66 36 -16 202 -74 230 -82 11 -2 27 -7 35 -11 8 -3 18 -6 23
-7 4 -2 8 -3 10 -5 1 -1 9 -3 18 -5 9 -1 43 -11 75 -20 109 -32 308 -79 389
-91 17 -3 53 -9 81 -15 28 -5 69 -12 90 -14 22 -2 50 -6 64 -9 14 -2 52 -7 85
-10 33 -3 94 -9 135 -13 162 -15 696 -7 805 13 14 2 47 7 73 9 86 8 318 46
392 65 19 5 46 11 60 14 14 2 32 7 40 10 8 3 26 8 40 10 50 10 253 69 295 86
17 6 37 13 45 15 16 3 203 73 255 96 17 7 32 13 35 14 54 19 394 187 398 197
2 4 8 8 14 8 18 0 396 236 418 260 3 4 50 39 105 80 55 40 102 76 105 80 3 4
37 33 75 65 103 87 375 345 363 345 -2 0 -155 51 -340 114 l-337 114 -28 -28z"/>
</g>
</svg>
