<?xml version="1.0" encoding="UTF-8"?>
<svg id="Layer_2" data-name="Layer 2" xmlns="http://www.w3.org/2000/svg" xmlns:xlink="http://www.w3.org/1999/xlink" viewBox="0 0 108.88 116.9">
  <defs>
    <style>
      .cls-1 {
        fill: url(#radial-gradient);
      }
    </style>
    <radialGradient id="radial-gradient" cx="54.44" cy="58.45" fx="54.44" fy="58.45" r="56.48" gradientUnits="userSpaceOnUse">
      <stop offset="0" stop-color="#1affc9"/>
      <stop offset=".33" stop-color="#00ffc3"/>
      <stop offset=".64" stop-color="#00e6b0"/>
      <stop offset="1" stop-color="#00cc9c"/>
    </radialGradient>
  </defs>
  <g id="Layer_1-2" data-name="Layer 1">
    <g id="Accent-Logo">
      <path id="Radial-Gradiant" class="cls-1" d="M54.57,39.77c-9.2,4.46-18.19,8.82-27.65,13.4C36.22,35.29,45.28,17.88,54.58,0c17.48,33.59,34.76,66.79,52.28,100.43-2.86-1.4-5.2-2.75-7.69-3.7-5.67-2.16-11.38-4.21-17.15-6.1-1.54-.5-2.4-1.23-3.1-2.62-7.81-15.55-15.67-31.07-23.52-46.6-.24-.47-.48-.94-.83-1.63Zm-4.47,8.82c-1.18,0-1.93,.31-2.66,.67-7.59,3.67-15.2,7.3-22.74,11.07-1.19,.59-2.37,1.68-2.99,2.83-6.11,11.46-12.1,22.98-18.12,34.48-.43,.83-.87,1.65-1.56,2.96,22.48-12.68,46.19-14.58,70.99-11.89-2.6-5.36-5.05-10.24-7.32-15.2-.67-1.47-1.46-1.95-3.05-1.93-7.82,.08-15.65,.04-23.96,.04,3.94-7.96,7.67-15.5,11.4-23.04ZM10.26,76.96c-1.5-4.56-2.32-9.44-2.32-14.5,0-21,13.99-38.79,33.15-44.54,1.6-3.07,3.2-6.15,4.8-9.23C19.92,12.8,0,35.35,0,62.46c0,8.49,1.95,16.53,5.43,23.69,1.61-3.07,3.22-6.13,4.83-9.2ZM68.17,18.03c18.96,5.87,32.77,23.57,32.77,44.43,0,4.96-.78,9.75-2.23,14.23,1.61,3.09,3.22,6.19,4.83,9.28,3.43-7.12,5.35-15.1,5.35-23.52,0-26.99-19.74-49.45-45.55-53.71,1.61,3.1,3.22,6.19,4.83,9.29Zm18.25,79.05c-.25-.08-.48-.17-.7-.26-8.27,7.53-19.25,12.13-31.29,12.13s-22.79-4.51-31.03-11.9c-2.96,.7-5.9,1.51-8.82,2.45,9.95,10.69,24.13,17.39,39.85,17.39s29.74-6.62,39.68-17.2c-2.56-.89-5.12-1.77-7.69-2.61Z"/>
    </g>
  </g>
</svg>