<?xml version="1.0" encoding="UTF-8"?>
<svg id="Layer_2" data-name="Layer 2" xmlns="http://www.w3.org/2000/svg" xmlns:xlink="http://www.w3.org/1999/xlink" viewBox="0 0 60.47 86">
  <defs>
    <style>
      .cls-1 {
        fill: url(#linear-gradient);
      }
    </style>
    <linearGradient id="linear-gradient" x1="0" y1="43" x2="60.47" y2="43" gradientUnits="userSpaceOnUse">
      <stop offset="0" stop-color="#0d213f"/>
      <stop offset=".27" stop-color="#0a192f"/>
      <stop offset=".65" stop-color="#09162a"/>
      <stop offset="1" stop-color="#040b15"/>
    </linearGradient>
  </defs>
  <g id="Layer_1-2" data-name="Layer 1">
    <path id="Drawing_Compass" data-name="Drawing Compass" class="cls-1" d="M60.42,84.67l-10.38-29.67h4.2c.55,0,1-.45,1-1s-.45-1-1-1h-4.9l-4.65-13.28c-.24,.33-.5,.64-.77,.95-.13,.15-.27,.3-.41,.45-1.98,2.18-4.47,3.84-7.25,4.84l2.46,7.04h-5.49v-1c0-1.66-1.34-3-3-3s-3,1.34-3,3v1h-5.49l2.46-7.04c-2.77-1-5.26-2.66-7.25-4.84-.14-.15-.28-.3-.41-.45-.27-.31-.52-.63-.77-.95l-4.65,13.28H6.24c-.55,0-1,.45-1,1s.45,1,1,1h4.2L.06,84.67c-.18,.52,.09,1.09,.61,1.27,.52,.18,1.09-.09,1.27-.61l2.22-6.36c5.23-.29,9.77-3.7,11.52-8.64l5.37-15.33h6.19v1c0,1.66,1.34,3,3,3s3-1.34,3-3v-1h6.19l5.37,15.33c1.74,4.94,6.28,8.35,11.52,8.64l2.22,6.36c.18,.52,.75,.79,1.27,.61,.52-.18,.79-.75,.61-1.27ZM36.24,1c0-.55-.45-1-1-1h-10c-.55,0-1,.45-1,1V6h12V1Zm-10,36.05V20.95c-4.45,2.2-6.27,7.59-4.07,12.03,.87,1.77,2.3,3.2,4.07,4.07Zm4,7.95c8.84,0,16-7.16,16-16s-7.16-16-16-16S14.24,20.16,14.24,29c.01,8.83,7.17,15.99,16,16Zm0-27c6.08,0,11,4.92,11,11s-4.92,11-11,11-11-4.92-11-11c0-6.07,4.93-10.99,11-11Zm0,20c.67,0,1.34-.08,2-.23V20.23c-1.32-.31-2.68-.31-4,0v17.54c.66,.15,1.33,.23,2,.23Zm0-27c1.35,0,2.69,.16,4,.46v-3.46h-8v3.46c1.31-.3,2.65-.46,4-.46Zm9,18c0-3.41-1.94-6.53-5-8.05v16.1c3.06-1.52,4.99-4.64,5-8.05Z"/>
  </g>
</svg>