<?xml version="1.0" encoding="UTF-8"?>
<svg id="Layer_2" data-name="Layer 2" xmlns="http://www.w3.org/2000/svg" xmlns:xlink="http://www.w3.org/1999/xlink" viewBox="0 0 188.11 204">
  <defs>
    <style>
      .cls-1 {
        fill: url(#linear-gradient);
      }
    </style>
    <linearGradient id="linear-gradient" x1="94.06" y1="0" x2="94.06" y2="204" gradientUnits="userSpaceOnUse">
      <stop offset="0" stop-color="#fff"/>
      <stop offset=".27" stop-color="#f5f5f5"/>
      <stop offset=".65" stop-color="#f2f2f2"/>
      <stop offset="1" stop-color="#e6e6e6"/>
    </linearGradient>
  </defs>
  <g id="Layer_1-2" data-name="Layer 1">
    <path class="cls-1" d="M150.01,120c0,6.63-5.37,12-12,12s-12-5.37-12-12,5.37-12,12-12,12,5.37,12,12Zm29.4,17.3c-9.68,39.26-44.96,66.82-85.4,66.7-11.9,.03-23.68-2.38-34.6-7.1l-1.2-.5c-28.05-12.58-47.55-38.82-51.5-69.3h0c-.44-3.65-.67-7.32-.7-11-.04-16.96,4.86-33.58,14.1-47.8C2.27,59.52-5.07,37.94,3.71,20.1,9.78,7.76,22.36-.04,36.11,0c1.21,.01,2.4,.29,3.5,.8l114.2,55.1c10.99-1.09,19.02-10.89,17.92-21.88-1.01-10.12-9.45-17.88-19.62-18.02-4.42,0-8-3.58-8-8S147.69,0,152.11,0C171.99,0,188.11,16.12,188.11,36s-16.12,36-36,36c-1.21-.01-2.4-.29-3.5-.8l-56.2-27.2c-38.05,.92-68.83,31.26-70.3,69.3l36.1-19.3h0l32.1-17.1c3.92-2.04,8.75-.52,10.79,3.39,.6,1.14,.91,2.42,.91,3.71v103.5c29.95-3.24,54.68-24.85,61.9-54.1,1.27-4.23,5.74-6.63,9.97-5.35,3.96,1.19,6.36,5.2,5.53,9.25h0Zm-93.4-40l-16,8.6v78c5.18,1.81,10.55,3.02,16,3.6V97.3ZM30.51,55.2c10.21-10.72,22.98-18.67,37.1-23.1L34.41,16.1c-11,.98-19.13,10.69-18.15,21.69,.73,8.18,6.38,15.08,14.25,17.41Zm23.5,120.6v-61.4l-30.5,16.3c3.88,18.44,14.83,34.63,30.5,45.1Z"/>
  </g>
</svg>