<?xml version="1.0" encoding="UTF-8"?>
<svg id="Layer_2" data-name="Layer 2" xmlns="http://www.w3.org/2000/svg" xmlns:xlink="http://www.w3.org/1999/xlink" viewBox="0 0 20.01 20">
  <defs>
    <style>
      .cls-1 {
        fill: url(#linear-gradient);
      }
    </style>
    <linearGradient id="linear-gradient" x1="10.01" y1="0" x2="10.01" y2="20" gradientUnits="userSpaceOnUse">
      <stop offset="0" stop-color="#fff"/>
      <stop offset=".27" stop-color="#f5f5f5"/>
      <stop offset=".65" stop-color="#f2f2f2"/>
      <stop offset="1" stop-color="#e6e6e6"/>
    </linearGradient>
  </defs>
  <g id="Layer_1-2" data-name="Layer 1">
    <path class="cls-1" d="M19.94,9.61c-.2-.49-.64-.6-.93-.63v-2.97c0-1.1-.9-2-2-2h-6v-1.39c.31-.27,.5-.67,.5-1.11,0-.83-.67-1.5-1.5-1.5s-1.5,.67-1.5,1.5c0,.44,.19,.84,.5,1.11v1.39H3.01c-1.1,0-2,.9-2,2v3h-.08c-.52,.04-.93,.48-.93,1v2c0,.55,.45,1,1,1h0v5c0,1.1,.9,2,2,2h14c1.1,0,2-.9,2-2v-5c.55,0,1-.45,1-1v-1.94c.01-.16-.01-.31-.07-.45ZM3.01,18V6h14v4s0,0,0,0v2h0s0,6,0,6H3.01Zm3.5-10c.83,0,1.5,.9,1.5,2s-.67,2-1.5,2-1.5-.9-1.5-2,.67-2,1.5-2Zm7,0c.83,0,1.5,.9,1.5,2s-.67,2-1.5,2-1.5-.9-1.5-2,.67-2,1.5-2Zm-7.5,6H14.01v2H6.01v-2Z"/>
  </g>
</svg>